<svg width="40" height="40" viewBox="0 0 40 40" fill="none" xmlns="http://www.w3.org/2000/svg">
<circle opacity="0.5" cx="20" cy="20" r="19.5" stroke="white"/>
<path d="M21.8984 17.25C21.8984 17.1797 21.8672 17.1172 21.8203 17.0703L21.4297 16.6797C21.3828 16.6328 21.3125 16.6016 21.25 16.6016C21.1875 16.6016 21.1172 16.6328 21.0703 16.6797L17.4297 20.3203C17.3828 20.3672 17.3516 20.4375 17.3516 20.5C17.3516 20.5625 17.3828 20.6328 17.4297 20.6797L21.0703 24.3203C21.1172 24.3672 21.1875 24.3984 21.25 24.3984C21.3125 24.3984 21.3828 24.3672 21.4297 24.3203L21.8203 23.9297C21.8672 23.8828 21.8984 23.8125 21.8984 23.75C21.8984 23.6875 21.8672 23.6172 21.8203 23.5703L18.75 20.5L21.8203 17.4297C21.8672 17.3828 21.8984 17.3125 21.8984 17.25Z" fill="white"/>
</svg>
