<svg width="40" height="40" viewBox="0 0 40 40" fill="none" xmlns="http://www.w3.org/2000/svg">
<path d="M26.3438 16.75C26.3646 16.8333 26.375 16.9688 26.375 17.1562C26.375 18.2604 26.1667 19.3646 25.75 20.4688C25.3333 21.5521 24.7396 22.5521 23.9688 23.4688C23.2188 24.3646 22.2396 25.0938 21.0312 25.6562C19.8229 26.2188 18.4896 26.5 17.0312 26.5C15.1979 26.5 13.5208 26.0104 12 25.0312C12.2292 25.0521 12.4896 25.0625 12.7812 25.0625C14.3021 25.0625 15.6667 24.5938 16.875 23.6562C16.1458 23.6562 15.5 23.4479 14.9375 23.0312C14.3958 22.5938 14.0208 22.0521 13.8125 21.4062C14.0208 21.4271 14.2188 21.4375 14.4062 21.4375C14.6979 21.4375 14.9896 21.4062 15.2812 21.3438C14.7812 21.2396 14.3333 21.0312 13.9375 20.7188C13.5417 20.4062 13.2292 20.0312 13 19.5938C12.7708 19.1354 12.6562 18.6458 12.6562 18.125V18.0625C13.1146 18.3333 13.6042 18.4792 14.125 18.5C13.1458 17.8333 12.6562 16.9167 12.6562 15.75C12.6562 15.1667 12.8125 14.6146 13.125 14.0938C13.9375 15.1146 14.9271 15.9271 16.0938 16.5312C17.2812 17.1354 18.5417 17.4688 19.875 17.5312C19.8333 17.2812 19.8125 17.0312 19.8125 16.7812C19.8125 15.8854 20.125 15.1146 20.75 14.4688C21.3958 13.8229 22.1667 13.5 23.0625 13.5C24.0208 13.5 24.8229 13.8438 25.4688 14.5312C26.2188 14.3854 26.9167 14.125 27.5625 13.75C27.3125 14.5208 26.8333 15.125 26.125 15.5625C26.75 15.4792 27.375 15.3021 28 15.0312C27.5417 15.6979 26.9896 16.2708 26.3438 16.75Z" fill="white"/>
<circle opacity="0.4" cx="20" cy="20" r="19.5" stroke="white"/>
</svg>
